<?xml version="1.0" encoding="UTF-8" standalone="no"?>
<svg width="12px" height="23px" viewBox="0 0 12 23" version="1.1" xmlns="http://www.w3.org/2000/svg" xmlns:xlink="http://www.w3.org/1999/xlink" xmlns:sketch="http://www.bohemiancoding.com/sketch/ns">
    <!-- Generator: Sketch 3.5.2 (25235) - http://www.bohemiancoding.com/sketch -->
    <title>arrow-left</title>
    <desc>Created with Sketch.</desc>
    <defs></defs>
    <g id="Welcome" stroke="none" stroke-width="1" fill="none" fill-rule="evenodd" sketch:type="MSPage">
        <g id="Desktop" sketch:type="MSArtboardGroup" transform="translate(-35.000000, -127.000000)" fill-opacity="0.5" fill="#FFFFFF">
            <g id="Navigation" sketch:type="MSLayerGroup" transform="translate(35.000000, 127.000000)">
                <g id="arrow-left" transform="translate(6.000000, 11.500000) rotate(-180.000000) translate(-6.000000, -11.500000) " sketch:type="MSShapeGroup">
                    <g id="Capa_1" transform="translate(-0.000000, 0.000000)">
                        <path d="M11.7975178,11.0224372 L1.12083794,0.19126569 C0.869454545,-0.0637552301 0.46629249,-0.0637552301 0.214909091,0.19126569 C-0.0364743083,0.446286611 -0.0364743083,0.855282427 0.214909091,1.11030335 L10.436253,11.4795502 L0.214909091,21.8487971 C-0.0364743083,22.103818 -0.0364743083,22.5128138 0.214909091,22.7678347 C0.338229249,22.8929393 0.504237154,22.9603033 0.665501976,22.9603033 C0.826766798,22.9603033 0.992774704,22.897751 1.11609486,22.7678347 L11.7927747,11.9366632 C12.0441581,11.686454 12.0441581,11.2726464 11.7975178,11.0224372 L11.7975178,11.0224372 Z" id="Shape"></path>
                    </g>
                </g>
            </g>
        </g>
    </g>
</svg>