<?xml version="1.0" encoding="UTF-8" standalone="no"?>
<svg width="19px" height="19px" viewBox="0 0 19 19" version="1.1" xmlns="http://www.w3.org/2000/svg" xmlns:xlink="http://www.w3.org/1999/xlink" xmlns:sketch="http://www.bohemiancoding.com/sketch/ns">
    <!-- Generator: Sketch 3.5.2 (25235) - http://www.bohemiancoding.com/sketch -->
    <title>home</title>
    <desc>Created with Sketch.</desc>
    <defs></defs>
    <g id="Welcome" stroke="none" stroke-width="1" fill="none" fill-rule="evenodd" sketch:type="MSPage">
        <g id="Desktop" sketch:type="MSArtboardGroup" transform="translate(-916.000000, -21.000000)" stroke="#F49153" fill="#F49153">
            <g id="home" sketch:type="MSLayerGroup" transform="translate(917.000000, 22.000000)">
                <g id="Capa_1" sketch:type="MSShapeGroup">
                    <path d="M16.6723898,7.67362712 L14.1710847,5.3509661 L14.1710847,1.54584746 L11.2897288,1.54584746 L11.2897288,2.67562712 L8.40837288,0 L0.144644068,7.67362712 C0.0282372881,7.7819661 0.0213220339,7.96435593 0.129661017,8.08105085 C0.237711864,8.19745763 0.420101695,8.20408475 0.537084746,8.0960339 L1.49340678,7.208 L1.49340678,16.8170339 L6.10357627,16.8170339 L10.7137458,16.8170339 L15.3239153,16.8170339 L15.3239153,7.20771186 L16.2802373,8.09574576 C16.3355593,8.14732203 16.4061525,8.17267797 16.4764576,8.17267797 C16.5539661,8.17267797 16.6308983,8.14184746 16.6873729,8.08076271 C16.7957119,7.96435593 16.7887966,7.7819661 16.6723898,7.67362712 L16.6723898,7.67362712 Z M11.866,2.12211864 L13.5948136,2.12211864 L13.5948136,4.81589831 L11.866,3.21069492 L11.866,2.12211864 L11.866,2.12211864 Z M6.67955932,16.2407627 L6.67955932,10.1717627 C6.67955932,10.0227966 6.80057627,9.90177966 6.94954237,9.90177966 L9.86720339,9.90177966 C10.0161695,9.90177966 10.1371864,10.0227966 10.1371864,10.1717627 L10.1371864,16.2407627 L6.67955932,16.2407627 L6.67955932,16.2407627 Z M14.7473559,16.2407627 L10.7134576,16.2407627 L10.7134576,10.1717627 C10.7134576,9.70498305 10.3339831,9.32550847 9.86720339,9.32550847 L6.94954237,9.32550847 C6.48276271,9.32550847 6.10328814,9.70498305 6.10328814,10.1717627 L6.10328814,16.2407627 L2.06938983,16.2407627 L2.06938983,6.67264407 L8.40837288,0.786322034 L12.5229492,4.607 L14.1710847,6.13728814 L14.1710847,6.13728814 L14.7473559,6.67235593 L14.7473559,16.2407627 L14.7473559,16.2407627 Z" id="Shape"></path>
                </g>
            </g>
        </g>
    </g>
</svg>