<?xml version="1.0" encoding="UTF-8" standalone="no"?>
<svg width="164px" height="47px" viewBox="0 0 164 47" version="1.1" xmlns="http://www.w3.org/2000/svg" xmlns:xlink="http://www.w3.org/1999/xlink" xmlns:sketch="http://www.bohemiancoding.com/sketch/ns">
    <!-- Generator: Sketch 3.5.2 (25235) - http://www.bohemiancoding.com/sketch -->
    <title>logo</title>
    <desc>Created with Sketch.</desc>
    <defs></defs>
    <g id="Welcome" stroke="none" stroke-width="1" fill="none" fill-rule="evenodd" sketch:type="MSPage">
        <g id="Desktop" sketch:type="MSArtboardGroup" transform="translate(-35.000000, -31.000000)">
            <g id="logo" sketch:type="MSLayerGroup" transform="translate(35.000000, 31.000000)">
                <g id="Group-23" sketch:type="MSShapeGroup">
                    <path d="M56.776482,29.5042272 C57.6246482,29.9687515 58.5373241,30.2010136 59.5136011,30.2010136 C61.5442936,30.2010136 62.5591856,28.7681981 62.5591856,25.902567 C62.5591856,23.4672369 61.4370803,22.2493437 59.1924155,22.2493437 C58.2247701,22.2493437 57.4193075,22.310033 56.776482,22.4300427 L56.776482,29.5042272 Z M53.3706427,20.0421689 C55.1610139,19.672101 57.0545097,19.4872951 59.0511302,19.4872951 C63.6349529,19.4872951 65.9268643,21.6342369 65.9268643,25.9285767 C65.9268643,30.670101 63.7930471,33.040635 59.5267756,33.040635 C58.6186427,33.040635 57.7014238,32.8257126 56.776482,32.3954117 L56.776482,37.9459748 L53.3706427,37.9459748 L53.3706427,20.0421689 Z" id="Fill-3" fill="#F7914B"></path>
                    <path d="M66.5229429,32.395366 L66.5229429,29.5557447 C68.0221119,30.1580748 69.7525163,30.4592398 71.7150648,30.4592398 C73.1797075,30.4592398 73.9124831,29.9860456 73.9124831,29.039201 C73.9124831,28.1357058 73.4195745,27.6839583 72.4346659,27.6839583 L69.9928377,27.6839583 C67.2511756,27.6839583 65.8805717,26.3287155 65.8805717,23.6182301 C65.8805717,20.7776961 67.8803723,19.3581136 71.8817906,19.3581136 C73.578123,19.3581136 75.176328,19.6159291 76.675497,20.1324728 L76.675497,22.9720942 C75.176328,22.3697641 73.5481396,22.0690553 71.7918404,22.0690553 C69.9496798,22.0690553 69.0288266,22.5422495 69.0288266,23.4886379 C69.0288266,24.392133 69.5639845,24.8443369 70.6352089,24.8443369 L72.8199069,24.8443369 C75.8186992,24.8443369 77.3183224,26.1995796 77.3183224,28.910065 C77.3183224,31.7501427 75.4075634,33.1697252 71.5864997,33.1697252 C69.710267,33.1697252 68.0221119,32.9119097 66.5229429,32.395366" id="Fill-5" fill="#F7914B"></path>
                    <path d="M90.2385241,14.5820922 L90.2385241,15.7438592 L79.5208288,15.7438592 L79.5208288,23.1014126 L89.8019479,23.1014126 L89.8019479,24.2631796 L79.5208288,24.2631796 L79.5208288,33.0407718 L78.1715767,33.0407718 L78.1715767,14.5820922 L90.2385241,14.5820922 Z" id="Fill-6" fill="#16273F"></path>
                    <path d="M91.284626,33.0408631 L91.284626,19.487067 L92.2486371,19.487067 L92.4158172,21.7330282 C93.7691579,20.2358728 95.2774127,19.487067 96.9392188,19.487067 L96.9392188,20.5712612 C95.3287479,20.5712612 93.8936343,21.3588534 92.6343324,22.9335816 L92.6343324,33.0408631 L91.284626,33.0408631 Z" id="Fill-7" fill="#16273F"></path>
                    <path d="M98.1779867,25.3472825 L107.148469,25.3472825 C107.097134,22.1978262 105.683372,20.6230981 102.907638,20.6230981 C99.9088454,20.6230981 98.3324465,22.1978262 98.1779867,25.3472825 M102.907638,19.4873408 C106.600136,19.4873408 108.44684,21.5393699 108.44684,25.6443408 C108.44684,25.9368359 108.437754,26.2425641 108.420491,26.5606126 L98.1779867,26.5606126 C98.1779867,30.1061466 100.045588,31.8789136 103.781244,31.8789136 C105.31494,31.8789136 106.676912,31.6639913 107.86807,31.233234 L107.86807,32.3954573 C106.676912,32.8257583 105.31494,33.0406806 103.781244,33.0406806 C99.1465407,33.0406806 96.8287346,30.7303796 96.8287346,26.108865 C96.8287346,21.6945155 98.8548842,19.4873408 102.907638,19.4873408" id="Fill-8" fill="#16273F"></path>
                    <path d="M110.648892,25.3472825 L119.619374,25.3472825 C119.568039,22.1978262 118.154277,20.6230981 115.378543,20.6230981 C112.379751,20.6230981 110.803352,22.1978262 110.648892,25.3472825 M115.378543,19.4873408 C119.071042,19.4873408 120.917745,21.5393699 120.917745,25.6443408 C120.917745,25.9368359 120.908659,26.2425641 120.891396,26.5606126 L110.648892,26.5606126 C110.648892,30.1061466 112.516493,31.8789136 116.252604,31.8789136 C117.785845,31.8789136 119.147817,31.6639913 120.338975,31.233234 L120.338975,32.3954573 C119.147817,32.8257583 117.785845,33.0406806 116.252604,33.0406806 C111.617446,33.0406806 109.29964,30.7303796 109.29964,26.108865 C109.29964,21.6945155 111.325789,19.4873408 115.378543,19.4873408" id="Fill-9" fill="#16273F"></path>
                    <path d="M134.768613,32.6536379 C133.65423,32.9119097 132.454895,33.0410456 131.170153,33.0410456 C126.629034,33.0410456 124.358474,30.696065 124.358474,26.0056476 C124.358474,21.660201 126.629034,19.4872495 131.170153,19.4872495 C132.454895,19.4872495 133.65423,19.6159291 134.768613,19.8746573 L134.768613,21.035968 C133.568823,20.7776961 132.412192,20.6485602 131.298264,20.6485602 C127.6571,20.6485602 125.836746,22.4345602 125.836746,26.0056476 C125.836746,29.9217058 127.6571,31.8792786 131.298264,31.8792786 C132.412192,31.8792786 133.568823,31.7501427 134.768613,31.4923272 L134.768613,32.6536379 Z" id="Fill-11" fill="#16273F"></path>
                    <path d="M135.557403,19.4872495 L145.581392,19.4872495 L145.581392,20.6485602 L137.009325,31.8792786 L145.324716,31.8792786 L145.324716,33.0410456 L135.300727,33.0410456 L135.300727,31.8792786 L143.975009,20.6485602 L135.557403,20.6485602 L135.557403,19.4872495 Z" id="Fill-12" fill="#16273F"></path>
                    <path d="M14.3053884,31.7196155 L0.135515789,27.4070233 L0.194119668,25.0488097 L14.363538,29.3614019 L14.3053884,31.7196155 Z" id="Fill-13" fill="#030506"></path>
                    <path d="M14.3634925,29.3611738 L0.194074238,25.0490379 L19.6782737,23.3369602 L33.8486006,27.6495524 L14.3634925,29.3611738 Z" id="Fill-14" fill="#2A4463"></path>
                    <path d="M33.8484188,27.6493699 L33.789815,30.0075835 L14.3051612,31.7196612 L14.3633108,29.3609913 L33.8484188,27.6493699 Z" id="Fill-15" fill="#132339"></path>
                    <path d="M14.3053884,26.3570524 L0.135515789,22.0449165 L0.194119668,19.6862466 L14.363538,23.9988388 L14.3053884,26.3570524 Z" id="Fill-16" fill="#030506"></path>
                    <path d="M14.3634925,23.9986563 L0.194074238,19.6860641 L19.6782737,17.9739864 L33.8486006,22.2865786 L14.3634925,23.9986563 Z" id="Fill-17" fill="#2A4463"></path>
                    <path d="M33.8484188,22.2863505 L33.789815,24.6445641 L14.3051612,26.3570981 L14.3633108,23.9984282 L33.8484188,22.2863505 Z" id="Fill-18" fill="#132339"></path>
                    <path d="M14.3053884,20.9938505 L0.135515789,16.6817146 L0.194119668,14.323501 L14.363538,18.6356369 L14.3053884,20.9938505 Z" id="Fill-19" fill="#030506"></path>
                    <path d="M14.3634925,18.6356369 L0.194074238,14.323501 L19.6782737,12.610967 L33.8486006,16.9235592 L14.3634925,18.6356369 Z" id="Fill-20" fill="#2A4463"></path>
                    <path d="M33.8484188,16.9233767 L33.789815,19.2820466 L14.3051612,20.993668 L14.3633108,18.6354544 L33.8484188,16.9233767 Z" id="Fill-21" fill="#132339"></path>
                    <path d="M20.966287,0.377642718 L19.3112953,8.57891456 L20.3311845,8.57891456 L21.8230848,1.38608932 L162.659561,2.43286602 L162.659561,45.5670019 L12.9311956,44.4969534 L14.8028853,35.5012447 L13.7825418,35.5012447 L11.7214116,45.4912544 L163.127484,46.5640408 L163.568148,46.5772738 L163.568148,1.4362835 L20.966287,0.377642718 Z" id="Fill-22" fill="#16273F"></path>
                    <path d="M39.8589507,19.4872495 L43.4574105,19.4872495 L46.7342305,28.9616282 L50.1400698,19.4872495 L53.7385296,19.4872495 L48.2511169,33.0410456 L45.0124576,33.0410456 L39.8589507,19.4872495 Z" id="Fill-1" fill="#F7914B"></path>
                </g>
            </g>
        </g>
    </g>
</svg>